# xmcd
#
# Track frame offsets:
#	150
#	16880
#	32002
#	45000
#	62197
#	78337
#	93567
#	107065
#	124285
#	140430
#	160140
#	175902
#
# Disc length: 2584 seconds
#
# Revision: 0
# Processed by: cddbd v1.5.1PL0 Copyright (c) Steve Scherf et al.
# Submitted via: EasyCDDAExtractor 8.1.4.1
#
DISCID=930a160c
DTITLE=Tannia Mara
DYEAR=1900
DGENRE=
TTITLE0=Em Busca do seu Amor
TTITLE1=Tem Que Ser Com Voe
TTITLE2=Sem Misterio
TTITLE3=Madrugada em Prantos de Chuva
TTITLE4=Nem Pensando
TTITLE5=Chega
TTITLE6=Pra Disfarçar
TTITLE7=Mar de Amor
TTITLE8=Amor Ou Paxão
TTITLE9=Cedo para Rolar
TTITLE10=Louca Paixão
TTITLE11=Não Se Esconde da Paixão
EXTD=
EXTT0=
EXTT1=
EXTT2=
EXTT3=
EXTT4=
EXTT5=
EXTT6=
EXTT7=
EXTT8=
EXTT9=
EXTT10=
EXTT11=
PLAYORDER=
